M48
;Layer_Color=9474304
;FILE_FORMAT=2:5
INCH,LZ
;TYPE=PLATED
T1F00S00C0.01181
T3F00S00C0.03150
T4F00S00C0.03898
T5F00S00C0.03937
T7F00S00C0.04016
T8F00S00C0.04331
T9F00S00C0.05512
T10F00S00C0.05906
;TYPE=NON_PLATED
T13F00S00C0.01575
T15F00S00C0.03543
T16F00S00C0.06693
%
T01
X-00015Y0049
X0009216Y0062051
X-0010012Y008
X0033Y0016138
X0058Y004927
X0064Y0062
X007998Y006752
X00815Y0082
X0075398Y0095
X0052Y00795
X01002Y00686
X011577Y004927
X0126451Y0033936
X0141Y0039
X014Y00675
X0159287Y0074213
X01835Y0061
X0176Y004927
X0197Y0068
X01264Y0084
X0204Y0062051
X02165Y0074213
X0214Y0041264
X0233Y004927
X0239961Y0060039
X0256Y006752
X02765Y0074446
X0291795Y0056705
X02985Y0061
X0314434Y006752
X0315Y0074
X03345Y0074213
X03235Y00585
X033Y00395
X0352Y0055
X035689Y006115
X02745Y0041443
X02605Y00165
X03735Y006752
X0382Y0060039
X0394Y0074106
X04115Y0058
X04175Y00595
X0431366Y006752
X0437843Y0068638
X04405Y006
X0451669Y0074446
X0474Y006115
X0467421Y0053935
X0490766Y006752
X04605Y0151535
X0466276Y0224173
X04635Y02296
X0439Y0235781
X0392Y0241
X0393Y02265
X0377421Y02275
X03775Y0221
X03745Y0233968
X0379Y0175384
X0353Y014
X0350177Y013
X0349Y01175
X03325Y01245
X033205Y013405
X03325Y01455
X03195Y0169535
X0291863Y0208568
X0255Y0177051
X0248614Y0177272
X0241551Y0177
X0204
X020687Y014663
X0221654Y0141
X023Y0143
X0254323Y0146807
X0261536Y0154536
X0272573Y0259927
X017687Y0234134
X01685Y0227
X0161Y0220149
X0156Y02155
Y0232
X0163442Y02445
X0098482Y02425
X00915Y0221
X01002Y0204774
X008101Y01745
X0064Y01855
X0096Y01149
X0158Y010913
X0172464Y0154536
X0190937Y0147323
X0193693Y01415
X02005Y01445
X01935Y0177
X0016708Y02015
X0015Y0225
X00135Y02475
X-0017624Y02855
X-00085Y0301
X-0019623Y0343
X-0033Y0341
X-0030843Y0359842
X0015119Y0361
X00435Y0335482
X0067028Y0342747
X0057Y036
X0101Y0358281
X0135266Y0360495
X0136Y0348206
X01295Y034424
X0127085Y0339719
X01235Y0335
X0121991Y0329
X011577Y0311131
X0103Y02985
X00895Y0319
X00605Y02995
X01415Y0322
X0151111Y0336889
X0171Y0346
X0296Y03175
X02795Y0272
X0276Y0265573
X0365Y0289897
Y02995
X0371282Y0297835
X0367Y03065
T03
X0536158Y0262626
Y02705
Y0278374
X0546
Y02705
Y0262626
T04
X-0010012Y0041461
Y0059177
X0015579
Y0041461
X0048228Y0041264
Y005898
X0073819
Y0041264
X0106862
Y005898
X0132452
Y0041264
X0165495
Y005898
X0191086
Y0041264
X0224128
Y005898
X0249719
Y0041264
X0282762
Y005898
X0308352
Y0041264
X0341395
Y005898
X0366985
Y0041264
X0400028
Y005898
X0425619
Y0041264
X0458661
Y005898
X0484252
Y0041264
T05
X0055551Y0010236
X0065551
X0075551
X0085551
X0095551
X0105551
X0115551
X0125551
X0135551
X0145551
X0155551
X0165551
X0175551
X0185551
X0195551
Y0020236
X0185551
X0175551
X0165551
X0155551
X0145551
X0135551
X0125551
X0115551
X0105551
X0095551
X0085551
X0075551
X0065551
X0055551
X0097216Y0079972
X0107059
X0116902
X0205551Y0020236
Y0010236
X0215551
X0225551
X0235551
X0245551
Y0020236
X0235551
X0225551
X0215551
X0287421
Y0010236
X0297421
X0307421
X0317421
X0327421
X0337421
X0347421
Y0020236
X0337421
X0327421
X0317421
X0307421
X0297421
X0357421
Y0010236
X0367421
X0377421
X0387421
X0397421
X0407421
X0417421
X0427421
X0437421
X0447421
X0457421
X0467421
X0477421
Y0020236
X0467421
X0457421
X0447421
X0437421
X0427421
X0417421
X0407421
X0397421
X0387421
X0377421
X0367421
X051961Y0023327
X0529453
X0539296
X0116902Y0137059
X0097216
T07
X014687Y035315
Y036315
X015687
X016687
X017687
X018687
Y035315
X017687
X016687
X015687
X019687
Y036315
X020687
X021687
Y035315
X020687
X022687
Y036315
X023687
X024687
Y035315
X025687
X026687
Y036315
X025687
X023687Y035315
X0310177
X0320177
X0330177
X0340177
Y036315
X0330177
X0320177
X0310177
X0350177
Y035315
X0360177
Y036315
X0370177
Y035315
X0380177
Y036315
X0390177
X0400177
X0410177
X0420177
Y035315
X0430177
Y036315
X0410177Y035315
X0400177
X0390177
T08
X0297585Y0095722
X0307428
X031727
X0327113
X0341089
X0350932
X0360773
X0370617
X0383608
X0393451
X0403293
X0413136
X0426128
X0435971
X0445813
X0455656
Y0213832
X0435971
X0413136
X0393451
X0370617
X0350932
X0327113
X0307428
T09
X-0019957Y008691
X0005043
X0030043
X0502937Y0086122
X0527937
X0552937
Y015002
Y0161909
X0527937
Y015002
Y0225807
X0552937
X0502937
Y0161909
Y015002
X0030043Y0150807
Y0162697
X0005043
Y0150807
X-0019957
Y0162697
Y0226594
X0005043
X0030043
T10
X0541079Y0254358
Y0286642
T13
X0248614Y0137803
X0185622
T15
X-0023228Y0355118
X0003543
X0020128
X00469
X0063485
X0090256
X0106841
X0133613
T16
X-0024606Y0271063
X0002953
Y0316929
X-0024606
M30
