M48
;Layer_Color=9474304
;FILE_FORMAT=2:5
INCH,LZ
;TYPE=PLATED
T2F00S00C0.01968
T6F00S00C0.03937
T11F00S00C0.07087
;TYPE=NON_PLATED
T14F00S00C0.02362
%
G90
G05
T02
G00X0387008Y0252362
M15
G01X0394882
M16
G00X0439764Y0252362
M15
G01X0447638
M16
G00X048504Y0252362
M15
G01X0492914
M16
G00X0334252Y0252362
M15
G01X0342126
M16
G00X0281496Y0252362
M15
G01X028937
M16
G00X0236221Y0252362
M15
G01X0244095
M16
G00X0183465Y0252362
M15
G01X0191339
M16
G00X0138189Y0252362
M15
G01X0146063
M16
G00X0085433Y0252362
M15
G01X0093307
M16
G00X0040157Y0252362
M15
G01X0048031
M16
G00X0040157Y0284252
M15
G01X0048031
M16
G00X0040157Y0297835
M15
G01X0048031
M16
G00X0040157Y0329724
M15
G01X0048031
M16
G00X0085433Y0329724
M15
G01X0093307
M16
G00X0085433Y0297835
M15
G01X0093307
M16
G00X0085433Y0284252
M15
G01X0093307
M16
G00X0138189Y0284252
M15
G01X0146063
M16
G00X0138189Y0297835
M15
G01X0146063
M16
G00X0138189Y0329724
M15
G01X0146063
M16
G00X0183465Y0329724
M15
G01X0191339
M16
G00X0183465Y0297835
M15
G01X0191339
M16
G00X0183465Y0284252
M15
G01X0191339
M16
G00X0236221Y0284252
M15
G01X0244095
M16
G00X0236221Y0297835
M15
G01X0244095
M16
G00X0236221Y0329724
M15
G01X0244095
M16
G00X0281496Y0329724
M15
G01X028937
M16
G00X0281496Y0297835
M15
G01X028937
M16
G00X0281496Y0284252
M15
G01X028937
M16
G00X0334252Y0284252
M15
G01X0342126
M16
G00X0334252Y0297835
M15
G01X0342126
M16
G00X0334252Y0329724
M15
G01X0342126
M16
G00X0387008Y0329724
M15
G01X0394882
M16
G00X0387008Y0297835
M15
G01X0394882
M16
G00X0387008Y0284252
M15
G01X0394882
M16
G00X0439764Y0284252
M15
G01X0447638
M16
G00X0439764Y0297835
M15
G01X0447638
M16
G00X0439764Y0329724
M15
G01X0447638
M16
G00X048504Y0329724
M15
G01X0492914
M16
G00X048504Y0297835
M15
G01X0492914
M16
G00X048504Y0284252
M15
G01X0492914
M16
T06
G00X0025591Y0272441
M15
G01Y0274803
M16
G00X0025591Y0317913
M15
G01Y0320276
M16
G00X0062599Y0316142
M15
G01Y0322047
M16
G00X0070866Y0317913
M15
G01Y0320276
M16
G00X0107874Y0316142
M15
G01Y0322047
M16
G00X0123622Y0317913
M15
G01Y0320276
M16
G00X016063Y0316142
M15
G01Y0322047
M16
G00X0168898Y0317913
M15
G01Y0320276
M16
G00X0168898Y0272441
M15
G01Y0274803
M16
G00X016063Y0270669
M15
G01Y0276575
M16
G00X0123622Y0272441
M15
G01Y0274803
M16
G00X0107874Y0270669
M15
G01Y0276575
M16
G00X0070866Y0272441
M15
G01Y0274803
M16
G00X0062599Y0270669
M15
G01Y0276575
M16
G00X0205906Y0270669
M15
G01Y0276575
M16
G00X0221654Y0272441
M15
G01Y0274803
M16
G00X0258662Y0270669
M15
G01Y0276575
M16
G00X0266929Y0272441
M15
G01Y0274803
M16
G00X0303937Y0270669
M15
G01Y0276575
M16
G00X0319685Y0272441
M15
G01Y0274803
M16
G00X0356693Y0270669
M15
G01Y0276575
M16
G00X0356693Y0316142
M15
G01Y0322047
M16
G00X0319685Y0317913
M15
G01Y0320276
M16
G00X0303937Y0316142
M15
G01Y0322047
M16
G00X0266929Y0317913
M15
G01Y0320276
M16
G00X0258662Y0316142
M15
G01Y0322047
M16
G00X0221654Y0317913
M15
G01Y0320276
M16
G00X0205906Y0316142
M15
G01Y0322047
M16
G00X0372441Y0317913
M15
G01Y0320276
M16
G00X0409449Y0316142
M15
G01Y0322047
M16
G00X0425197Y0317913
M15
G01Y0320276
M16
G00X0462205Y0316142
M15
G01Y0322047
M16
G00X0470473Y0317913
M15
G01Y0320276
M16
G00X050748Y0316142
M15
G01Y0322047
M16
G00X050748Y0270669
M15
G01Y0276575
M16
G00X0470473Y0272441
M15
G01Y0274803
M16
G00X0462205Y0270669
M15
G01Y0276575
M16
G00X0425197Y0272441
M15
G01Y0274803
M16
G00X0409449Y0270669
M15
G01Y0276575
M16
G00X0372441Y0272441
M15
G01Y0274803
M16
T11
G00X0510949Y0050098
M15
G01Y0051673
M16
G00X0547957Y0050098
M15
G01Y0051673
M16
T14
G00X0261212Y01245
M15
G01X0173023
M16
M17
M30
