G04*
G04 #@! TF.GenerationSoftware,Altium Limited,Altium Designer,19.0.15 (446)*
G04*
G04 Layer_Color=8388736*
%FSLAX25Y25*%
%MOIN*%
G70*
G01*
G75*
%ADD11R,0.04724X0.04528*%
%ADD12C,0.02362*%
%ADD13C,0.08858*%
%ADD14O,0.13189X0.04528*%
%ADD15O,0.06496X0.13189*%
%ADD16O,0.06496X0.08465*%
%ADD17C,0.00591*%
%ADD18C,0.02166*%
%ADD19P,0.07448X8X112.5*%
%ADD20C,0.06693*%
%ADD21R,0.06693X0.06693*%
%ADD22C,0.03937*%
%ADD23C,0.05315*%
%ADD24C,0.06653*%
%ADD25C,0.06496*%
%ADD26R,0.06496X0.06496*%
%ADD27R,0.09646X0.12795*%
G04:AMPARAMS|DCode=28|XSize=124.02mil|YSize=102.73mil|CornerRadius=0mil|HoleSize=0mil|Usage=FLASHONLY|Rotation=90.000|XOffset=0mil|YOffset=0mil|HoleType=Round|Shape=Octagon|*
%AMOCTAGOND28*
4,1,8,0.02568,0.06201,-0.02568,0.06201,-0.05137,0.03633,-0.05137,-0.03633,-0.02568,-0.06201,0.02568,-0.06201,0.05137,-0.03633,0.05137,0.03633,0.02568,0.06201,0.0*
%
%ADD28OCTAGOND28*%

%ADD29R,0.07756X0.07756*%
D11*
X-197Y69882D02*
D03*
X5709D02*
D03*
X57874D02*
D03*
X63779D02*
D03*
X116929D02*
D03*
X122835D02*
D03*
X175000D02*
D03*
X180905D02*
D03*
X234055D02*
D03*
X239961D02*
D03*
X292520D02*
D03*
X298425D02*
D03*
X474508D02*
D03*
X468602D02*
D03*
X350984D02*
D03*
X356890D02*
D03*
X409397D02*
D03*
X415302D02*
D03*
D12*
X46900Y355118D02*
D03*
X20128D02*
D03*
X3543D02*
D03*
X-23228D02*
D03*
X63485D02*
D03*
X90256D02*
D03*
X106841D02*
D03*
X133613D02*
D03*
D13*
X552937Y225807D02*
D03*
Y161909D02*
D03*
X527937Y225807D02*
D03*
Y161909D02*
D03*
X502937Y225807D02*
D03*
Y161909D02*
D03*
X541079Y286642D02*
D03*
Y254358D02*
D03*
X502937Y86122D02*
D03*
Y150020D02*
D03*
X527937Y86122D02*
D03*
Y150020D02*
D03*
X552937Y86122D02*
D03*
Y150020D02*
D03*
X30043Y150807D02*
D03*
Y86910D02*
D03*
X5043Y150807D02*
D03*
Y86910D02*
D03*
X-19957Y150807D02*
D03*
Y86910D02*
D03*
X30043Y226594D02*
D03*
Y162697D02*
D03*
X5043Y226594D02*
D03*
Y162697D02*
D03*
X-19957Y226594D02*
D03*
Y162697D02*
D03*
D14*
X142126Y284252D02*
D03*
Y252362D02*
D03*
X488977D02*
D03*
Y284252D02*
D03*
X443701D02*
D03*
Y252362D02*
D03*
X44094D02*
D03*
Y284252D02*
D03*
X89370D02*
D03*
Y252362D02*
D03*
X142126Y297835D02*
D03*
Y329724D02*
D03*
X488977D02*
D03*
Y297835D02*
D03*
X443701D02*
D03*
Y329724D02*
D03*
X44094D02*
D03*
Y297835D02*
D03*
X89370D02*
D03*
Y329724D02*
D03*
X285433Y284252D02*
D03*
Y252362D02*
D03*
X390945D02*
D03*
Y284252D02*
D03*
X338189D02*
D03*
Y252362D02*
D03*
X187402D02*
D03*
Y284252D02*
D03*
X240158D02*
D03*
Y252362D02*
D03*
X285433Y297835D02*
D03*
Y329724D02*
D03*
X390945D02*
D03*
Y297835D02*
D03*
X338189D02*
D03*
Y329724D02*
D03*
X187402D02*
D03*
Y297835D02*
D03*
X240158D02*
D03*
Y329724D02*
D03*
D15*
X160630Y273622D02*
D03*
X507480D02*
D03*
X462205D02*
D03*
X62599D02*
D03*
X107874D02*
D03*
X160630Y319094D02*
D03*
X507480D02*
D03*
X462205D02*
D03*
X62599D02*
D03*
X107874D02*
D03*
X303937Y273622D02*
D03*
X409449D02*
D03*
X356693D02*
D03*
X205906D02*
D03*
X258662D02*
D03*
X303937Y319094D02*
D03*
X409449D02*
D03*
X356693D02*
D03*
X205906D02*
D03*
X258662D02*
D03*
D16*
X123622Y273622D02*
D03*
X470473D02*
D03*
X425197D02*
D03*
X25591D02*
D03*
X70866D02*
D03*
X123622Y319094D02*
D03*
X470473D02*
D03*
X425197D02*
D03*
X25591D02*
D03*
X70866D02*
D03*
X266929Y273622D02*
D03*
X372441D02*
D03*
X319685D02*
D03*
X168898D02*
D03*
X221654D02*
D03*
X266929Y319094D02*
D03*
X372441D02*
D03*
X319685D02*
D03*
X168898D02*
D03*
X221654D02*
D03*
D17*
X217118Y124500D02*
D03*
D18*
X248614Y137803D02*
D03*
X185622D02*
D03*
D19*
X455656Y95722D02*
D03*
X445813D02*
D03*
X435971D02*
D03*
X426128D02*
D03*
X455656Y213832D02*
D03*
X435971D02*
D03*
X350932D02*
D03*
X370617D02*
D03*
X341089Y95722D02*
D03*
X350932D02*
D03*
X360773D02*
D03*
X370617D02*
D03*
X327113D02*
D03*
X317270D02*
D03*
X307428D02*
D03*
X297585D02*
D03*
X327113Y213832D02*
D03*
X307428D02*
D03*
X393451D02*
D03*
X413136D02*
D03*
X383608Y95722D02*
D03*
X393451D02*
D03*
X403293D02*
D03*
X413136D02*
D03*
D20*
X420177Y363150D02*
D03*
Y353150D02*
D03*
X430177D02*
D03*
Y363150D02*
D03*
X410177D02*
D03*
Y353150D02*
D03*
X340177Y363150D02*
D03*
Y353150D02*
D03*
X320177D02*
D03*
X330177D02*
D03*
X310177Y363150D02*
D03*
X320177D02*
D03*
X330177D02*
D03*
X350177Y353150D02*
D03*
Y363150D02*
D03*
X370177D02*
D03*
X360177D02*
D03*
X370177Y353150D02*
D03*
X360177D02*
D03*
X380177D02*
D03*
Y363150D02*
D03*
X400177D02*
D03*
Y353150D02*
D03*
X390177D02*
D03*
Y363150D02*
D03*
X186870Y353150D02*
D03*
Y363150D02*
D03*
X176870D02*
D03*
Y353150D02*
D03*
X196870D02*
D03*
Y363150D02*
D03*
X216870D02*
D03*
X206870D02*
D03*
X216870Y353150D02*
D03*
X206870D02*
D03*
X226870D02*
D03*
Y363150D02*
D03*
X246870Y353150D02*
D03*
X256870D02*
D03*
X266870D02*
D03*
X246870Y363150D02*
D03*
X256870D02*
D03*
X236870D02*
D03*
Y353150D02*
D03*
X166870Y363150D02*
D03*
Y353150D02*
D03*
X146870D02*
D03*
Y363150D02*
D03*
X156870D02*
D03*
Y353150D02*
D03*
D21*
X310177D02*
D03*
X266870Y363150D02*
D03*
D22*
X-24606Y316929D02*
D03*
X2953D02*
D03*
X-24606Y271063D02*
D03*
X2953D02*
D03*
D23*
X536158Y262626D02*
D03*
X546000D02*
D03*
Y270500D02*
D03*
X536158D02*
D03*
Y278374D02*
D03*
X546000D02*
D03*
D24*
X458661Y41264D02*
D03*
X484252D02*
D03*
Y58980D02*
D03*
X458661D02*
D03*
X400028Y41264D02*
D03*
X425619D02*
D03*
Y58980D02*
D03*
X400028D02*
D03*
X282762Y41264D02*
D03*
X308352D02*
D03*
Y58980D02*
D03*
X282762D02*
D03*
X224128Y41264D02*
D03*
X249719D02*
D03*
Y58980D02*
D03*
X224128D02*
D03*
X165495Y41264D02*
D03*
X191086D02*
D03*
Y58980D02*
D03*
X165495D02*
D03*
X-10012Y41461D02*
D03*
X15579D02*
D03*
Y59177D02*
D03*
X-10012D02*
D03*
X341395Y41264D02*
D03*
X366985D02*
D03*
Y58980D02*
D03*
X341395D02*
D03*
X106862Y41264D02*
D03*
X132452D02*
D03*
Y58980D02*
D03*
X106862D02*
D03*
X48228Y41264D02*
D03*
X73819D02*
D03*
Y58980D02*
D03*
X48228D02*
D03*
D25*
X55551Y10236D02*
D03*
X65551D02*
D03*
X75551D02*
D03*
X85551D02*
D03*
X95551D02*
D03*
X105551D02*
D03*
X115551D02*
D03*
X125551D02*
D03*
X135551D02*
D03*
X145551D02*
D03*
X155551D02*
D03*
X165551D02*
D03*
X175551D02*
D03*
X185551D02*
D03*
X195551D02*
D03*
X205551D02*
D03*
X215551D02*
D03*
X225551D02*
D03*
X235551D02*
D03*
X245551D02*
D03*
X55551Y20236D02*
D03*
X65551D02*
D03*
X75551D02*
D03*
X85551D02*
D03*
X95551D02*
D03*
X105551D02*
D03*
X115551D02*
D03*
X125551D02*
D03*
X135551D02*
D03*
X145551D02*
D03*
X155551D02*
D03*
X165551D02*
D03*
X175551D02*
D03*
X185551D02*
D03*
X195551D02*
D03*
X205551D02*
D03*
X215551D02*
D03*
X225551D02*
D03*
X235551D02*
D03*
X287421Y10236D02*
D03*
X297421D02*
D03*
X307421D02*
D03*
X317421D02*
D03*
X327421D02*
D03*
X337421D02*
D03*
X347421D02*
D03*
X357421D02*
D03*
X367421D02*
D03*
X377421D02*
D03*
X387421D02*
D03*
X397421D02*
D03*
X407421D02*
D03*
X417421D02*
D03*
X427421D02*
D03*
X437421D02*
D03*
X447421D02*
D03*
X457421D02*
D03*
X467421D02*
D03*
X477421D02*
D03*
X287421Y20236D02*
D03*
X297421D02*
D03*
X307421D02*
D03*
X317421D02*
D03*
X327421D02*
D03*
X337421D02*
D03*
X347421D02*
D03*
X357421D02*
D03*
X367421D02*
D03*
X377421D02*
D03*
X387421D02*
D03*
X397421D02*
D03*
X407421D02*
D03*
X417421D02*
D03*
X427421D02*
D03*
X437421D02*
D03*
X447421D02*
D03*
X457421D02*
D03*
X467421D02*
D03*
X116902Y79972D02*
D03*
X107059D02*
D03*
X97216D02*
D03*
X116902Y137059D02*
D03*
D26*
X245551Y20236D02*
D03*
X477421D02*
D03*
X97216Y137059D02*
D03*
D27*
X129500Y109500D02*
D03*
X84618D02*
D03*
D28*
X510949Y50886D02*
D03*
X547957D02*
D03*
D29*
X519610Y23327D02*
D03*
X529453D02*
D03*
X539296D02*
D03*
M02*
